<?xml version="1.0" standalone="no"?>
<!DOCTYPE svg PUBLIC "-//W3C//DTD SVG 20010904//EN"
 "http://www.w3.org/TR/2001/REC-SVG-20010904/DTD/svg10.dtd">
<svg version="1.0" xmlns="http://www.w3.org/2000/svg"
 width="1024.000000pt" height="1024.000000pt" viewBox="0 0 1024.000000 1024.000000"
 preserveAspectRatio="xMidYMid meet">

<g transform="translate(0.000000,1024.000000) scale(0.100000,-0.100000)"
fill="#90E0EF" stroke="none">
<path d="M5380 6599 c-167 -19 -408 -71 -530 -113 -205 -72 -236 -84 -220 -89
8 -3 83 -8 165 -11 253 -10 617 -58 837 -110 l98 -23 23 31 c13 17 67 97 120
179 l96 147 -257 -1 c-141 -1 -291 -5 -332 -10z"/>
<path d="M7732 6231 c-100 -56 -188 -125 -308 -245 -133 -133 -234 -263 -314
-404 -30 -52 -57 -89 -63 -85 -535 330 -1139 560 -1702 647 -298 46 -365 51
-735 51 -350 -1 -358 -1 -565 -34 -115 -17 -242 -39 -281 -48 l-72 -16 64
-126 c71 -141 112 -256 146 -411 20 -93 23 -132 23 -340 -1 -222 -2 -241 -29
-354 -39 -168 -88 -302 -160 -442 l-63 -122 106 -25 c445 -108 1041 -134 1507
-67 286 41 610 128 889 240 235 93 599 291 793 430 46 33 85 60 87 60 2 0 30
-44 63 -98 203 -329 550 -651 703 -652 56 0 89 38 89 104 0 153 -163 537 -339
801 -45 66 -81 123 -81 127 0 4 36 62 81 130 168 257 326 624 337 783 4 66 3
72 -23 98 -37 36 -84 36 -153 -2z m-1519 -1421 c31 -35 35 -75 12 -120 -18
-35 -31 -42 -195 -108 -341 -136 -673 -214 -1040 -243 -321 -25 -863 11 -944
64 -46 30 -61 105 -30 152 26 40 72 49 161 31 188 -38 339 -49 598 -43 338 8
554 39 865 127 135 38 357 121 429 161 51 28 108 20 144 -21z"/>
<path d="M3335 5981 c-425 -157 -725 -338 -991 -598 -121 -117 -137 -141 -128
-179 9 -34 183 -207 316 -315 117 -93 315 -225 453 -301 156 -86 461 -221 476
-212 21 13 91 128 127 210 105 233 150 467 139 718 -7 151 -26 257 -76 405
-50 147 -144 322 -175 321 -6 -1 -69 -23 -141 -49z m-174 -441 c47 -24 104
-88 119 -135 7 -22 10 -63 8 -100 -19 -236 -343 -283 -438 -63 -40 94 -12 215
66 274 70 54 167 63 245 24z"/>
<path d="M5700 4104 c-147 -47 -718 -123 -943 -125 l-72 0 40 -15 c72 -27 208
-65 320 -89 204 -44 335 -57 639 -62 l288 -5 -43 63 c-50 75 -178 249 -182
248 -1 0 -22 -7 -47 -15z"/>
</g>
</svg>
